# xmcd CD database file
#
# Track frame offsets:
#	150
#	18930
#	33422
#	57697
#	73007
#	91080
#	104925
#	122157
#	139185
#
# Disc length: 2092 seconds
#
# Revision: 1
# Processed by: cddbd v1.5.1PL0 Copyright (c) Steve Scherf et al.
# Submitted via: CDex 1.51
#
DISCID=83082a09
DTITLE=Mark Stacy - At This Table
DYEAR=1997
DGENRE=Country
TTITLE0=At This Table
TTITLE1=God Knows
TTITLE2=Apartment #209
TTITLE3=Heartbreak Bound
TTITLE4=The Camera Never Lies
TTITLE5=I Worry
TTITLE6=Tears For Every Occasion
TTITLE7=Recovery Room
TTITLE8=Like Father, Like Son
EXTD=YEAR: 1997
EXTT0=
EXTT1=
EXTT2=
EXTT3=
EXTT4=
EXTT5=
EXTT6=
EXTT7=
EXTT8=
PLAYORDER=
